<svg width="32" height="32" viewBox="0 0 32 32" fill="none" xmlns="http://www.w3.org/2000/svg">
<path d="M28.0001 8.00001H21.3334V5.77335C21.3021 4.91977 20.9337 4.11342 20.3088 3.53107C19.684 2.94871 18.8537 2.63787 18.0001 2.66668H14.0001C13.1464 2.63787 12.3162 2.94871 11.6913 3.53107C11.0665 4.11342 10.698 4.91977 10.6667 5.77335V8.00001H4.00008C3.64646 8.00001 3.30732 8.14049 3.05727 8.39054C2.80722 8.64059 2.66675 8.97972 2.66675 9.33335C2.66675 9.68697 2.80722 10.0261 3.05727 10.2762C3.30732 10.5262 3.64646 10.6667 4.00008 10.6667H5.33341V25.3333C5.33341 26.3942 5.75484 27.4116 6.50499 28.1618C7.25513 28.9119 8.27255 29.3333 9.33341 29.3333H22.6667C23.7276 29.3333 24.745 28.9119 25.4952 28.1618C26.2453 27.4116 26.6667 26.3942 26.6667 25.3333V10.6667H28.0001C28.3537 10.6667 28.6928 10.5262 28.9429 10.2762C29.1929 10.0261 29.3334 9.68697 29.3334 9.33335C29.3334 8.97972 29.1929 8.64059 28.9429 8.39054C28.6928 8.14049 28.3537 8.00001 28.0001 8.00001ZM13.3334 5.77335C13.3334 5.56001 13.6134 5.33335 14.0001 5.33335H18.0001C18.3867 5.33335 18.6667 5.56001 18.6667 5.77335V8.00001H13.3334V5.77335Z" fill="#231F20"/>
</svg>
