<svg width="32" height="32" viewBox="0 0 32 32" fill="none" xmlns="http://www.w3.org/2000/svg">
<path d="M24.7705 5.21484H6.51856C5.48126 5.21484 4.48645 5.62691 3.75297 6.36039C3.01949 7.09387 2.60742 8.08868 2.60742 9.12598V22.1631C2.60742 23.2004 3.01949 24.1952 3.75297 24.9287C4.48645 25.6622 5.48126 26.0743 6.51856 26.0743H24.7705C25.8078 26.0743 26.8027 25.6622 27.5361 24.9287C28.2696 24.1952 28.6817 23.2004 28.6817 22.1631V9.12598C28.6817 8.08868 28.2696 7.09387 27.5361 6.36039C26.8027 5.62691 25.8078 5.21484 24.7705 5.21484ZM24.7705 7.82227L16.2964 13.6499C16.0982 13.7643 15.8734 13.8245 15.6446 13.8245C15.4157 13.8245 15.1909 13.7643 14.9927 13.6499L6.51856 7.82227H24.7705Z" fill="#231F20"/>
</svg>
