<svg width="50" height="50" viewBox="0 0 50 50" fill="none" xmlns="http://www.w3.org/2000/svg">
<path d="M37.5 8.33335H35.4167V6.25002C35.4167 5.69749 35.1972 5.16758 34.8065 4.77688C34.4158 4.38618 33.8859 4.16669 33.3333 4.16669C32.7808 4.16669 32.2509 4.38618 31.8602 4.77688C31.4695 5.16758 31.25 5.69749 31.25 6.25002V8.33335H18.75V6.25002C18.75 5.69749 18.5305 5.16758 18.1398 4.77688C17.7491 4.38618 17.2192 4.16669 16.6667 4.16669C16.1141 4.16669 15.5842 4.38618 15.1935 4.77688C14.8028 5.16758 14.5833 5.69749 14.5833 6.25002V8.33335H12.5C10.8424 8.33335 9.25268 8.99183 8.08058 10.1639C6.90848 11.336 6.25 12.9258 6.25 14.5834V39.5834C6.25 41.241 6.90848 42.8307 8.08058 44.0028C9.25268 45.1749 10.8424 45.8334 12.5 45.8334H37.5C39.1576 45.8334 40.7473 45.1749 41.9194 44.0028C43.0915 42.8307 43.75 41.241 43.75 39.5834V14.5834C43.75 12.9258 43.0915 11.336 41.9194 10.1639C40.7473 8.99183 39.1576 8.33335 37.5 8.33335ZM12.5 12.5H14.5833V14.5834C14.5833 15.1359 14.8028 15.6658 15.1935 16.0565C15.5842 16.4472 16.1141 16.6667 16.6667 16.6667C17.2192 16.6667 17.7491 16.4472 18.1398 16.0565C18.5305 15.6658 18.75 15.1359 18.75 14.5834V12.5H31.25V14.5834C31.25 15.1359 31.4695 15.6658 31.8602 16.0565C32.2509 16.4472 32.7808 16.6667 33.3333 16.6667C33.8859 16.6667 34.4158 16.4472 34.8065 16.0565C35.1972 15.6658 35.4167 15.1359 35.4167 14.5834V12.5H37.5C38.0525 12.5 38.5824 12.7195 38.9731 13.1102C39.3638 13.5009 39.5833 14.0308 39.5833 14.5834V22.9167H10.4167V14.5834C10.4167 14.0308 10.6362 13.5009 11.0269 13.1102C11.4176 12.7195 11.9475 12.5 12.5 12.5ZM37.5 41.6667H12.5C11.9475 41.6667 11.4176 41.4472 11.0269 41.0565C10.6362 40.6658 10.4167 40.1359 10.4167 39.5834V27.0834H39.5833V39.5834C39.5833 40.1359 39.3638 40.6658 38.9731 41.0565C38.5824 41.4472 38.0525 41.6667 37.5 41.6667Z" fill="#231F20"/>
<path d="M16.6663 35.4167C17.8169 35.4167 18.7497 34.4839 18.7497 33.3333C18.7497 32.1827 17.8169 31.25 16.6663 31.25C15.5157 31.25 14.583 32.1827 14.583 33.3333C14.583 34.4839 15.5157 35.4167 16.6663 35.4167Z" fill="#231F20"/>
<path d="M33.3337 31.25H25.0003C24.4478 31.25 23.9179 31.4695 23.5272 31.8602C23.1365 32.2509 22.917 32.7808 22.917 33.3333C22.917 33.8859 23.1365 34.4158 23.5272 34.8065C23.9179 35.1972 24.4478 35.4167 25.0003 35.4167H33.3337C33.8862 35.4167 34.4161 35.1972 34.8068 34.8065C35.1975 34.4158 35.417 33.8859 35.417 33.3333C35.417 32.7808 35.1975 32.2509 34.8068 31.8602C34.4161 31.4695 33.8862 31.25 33.3337 31.25Z" fill="#231F20"/>
</svg>
