<svg width="30" height="30" viewBox="0 0 30 30" fill="none" xmlns="http://www.w3.org/2000/svg">
<path d="M23.75 25H6.25C5.91848 25 5.60054 25.1317 5.36612 25.3661C5.1317 25.6005 5 25.9185 5 26.25C5 26.5815 5.1317 26.8994 5.36612 27.1339C5.60054 27.3683 5.91848 27.5 6.25 27.5H23.75C24.0815 27.5 24.3995 27.3683 24.6339 27.1339C24.8683 26.8994 25 26.5815 25 26.25C25 25.9185 24.8683 25.6005 24.6339 25.3661C24.3995 25.1317 24.0815 25 23.75 25Z" fill="#231F20"/>
<path d="M6.25013 22.5H6.36263L11.5751 22.025C12.1461 21.9681 12.6802 21.7165 13.0876 21.3125L24.3376 10.0625C24.7743 9.6012 25.0103 8.98562 24.9938 8.35066C24.9774 7.71569 24.71 7.11312 24.2501 6.67499L20.8251 3.24999C20.3781 2.83011 19.7924 2.58919 19.1793 2.57306C18.5662 2.55692 17.9686 2.7667 17.5001 3.16249L6.25013 14.4125C5.84608 14.8199 5.59451 15.354 5.53763 15.925L5.00013 21.1375C4.98329 21.3206 5.00704 21.5051 5.0697 21.678C5.13236 21.8508 5.23238 22.0077 5.36263 22.1375C5.47943 22.2533 5.61795 22.345 5.77024 22.4072C5.92254 22.4694 6.08562 22.5009 6.25013 22.5ZM19.0876 4.99999L22.5001 8.41249L20.0001 10.85L16.6501 7.49999L19.0876 4.99999Z" fill="#231F20"/>
</svg>
